<svg xmlns="http://www.w3.org/2000/svg" width="0" height="0"><defs><symbol id="BCC" fill="none" viewBox="0 0 64 64"><rect width="64" height="64" fill="#000" rx="32"/><g clip-path="url(#clip0_52_111)"><path fill="#6B56F0" d="m31.9813 49.6096 3.6362-2.3442zM28.7088 17.5935l3.295-2.0353L32 15.5569l-3.2975 2.0328z"/><path fill="#fff" fill-opacity=".5" d="M56.89 22.9225c-.0725-.2682-.1775-.5212-.3163-.7602-.1387-.239-.305-.4564-.5-.6496-.1987-.1971-.4187-.3649-.6625-.5022l-15.29-8.6164c-.24-.1348-.4925-.2365-.7587-.3026-.2613-.0648-.5275-.0953-.7963-.0902-.27.0051-.5337.0457-.7925.122-.2637.0776-.5125.1882-.7462.3331L32 15.5569l.0037.0026-3.2937 2.0352-1.6338 1.0094-.0262.0165 3.8387 2.3442c.705.4297 1.5863.4233 2.285-.0178l1.89-1.1937 2.5225-1.556c.6725-.4144 1.5125-.4322 2.2-.0432l10.9688 6.182c.6975.3928 1.13 1.1403 1.13 1.9501v12.1912c0 .7996-.4213 1.5394-1.105 1.9361l-11.0713 6.435c-.675.3928-1.505.3915-2.1787-.0013l-.6613-.3864-1.2487.8046-3.6363 2.3442.0175.0102 5.08 2.9645c.235.1373.4838.2415.7463.3115.2575.0686.52.1042.7862.1042.2663 0 .5288-.0343.7863-.103.2625-.0699.5112-.1729.7462-.3102l15.3-8.8935c.2375-.1386.4538-.3064.6488-.5034.1912-.1933.3537-.4094.4887-.6458.135-.2365.2388-.4882.3088-.7526.0725-.2695.1075-.5428.1075-.8225V23.7552c0-.2823-.0375-.5607-.11-.8327"/><path fill="#fff" d="M33.3725 44.1598c-.7013-.4589-1.5987-.4742-2.315-.0369l-1.835 1.12-2.3862 1.392c-.9.525-2.005.5263-2.9063.0026l-10.34-6.0092c-.9112-.5288-1.4737-1.514-1.4737-2.5819V26.7248c0-1.0806.5762-2.0772 1.5062-2.601l10.22-5.7612c.9175-.5174 2.0375-.4946 2.9338.0584l.2974.1831 1.6338-1.0094-.0062-.0038 3.2975-2.034-5.0251-3.1005c-.235-.1449-.4837-.2555-.7475-.3331-.2587-.0763-.5212-.1169-.7912-.122s-.535.0254-.7962.0915c-.2663.0661-.5201.1678-.7601.3026L8.59 21.0105c-.24375.1373-.465.3039-.66375.5022-.195.1945-.36.4119-.49875.6509s-.245.4932-.3175.7602c-.07375.272-.11.5504-.11.8326v17.2139c0 .2784.03625.5517.1075.8212.07125.2644.17375.5148.30875.7526.135.2364.29875.4538.49.647.19375.1971.40875.3649.64625.5034l15.3013 8.8924c.235.1372.4849.2402.7474.3101.2575.0687.5188.1017.7863.1017s.53-.0343.7875-.1042c.2625-.0699.51-.1754.7462-.3127L32 49.6185l-.0175-.0102 3.6362-2.3441 1.2488-.8047.0125-.0076-3.5062-2.2934z"/><path fill="#fff" d="M23.9837 23.4081h5.6538v15.5561l-3.5025 2.7739V26.5213s-.07-1.1555-.4663-1.6373c-.3962-.4818-1.2912-.6217-1.2912-.6217s-.5638.0128-.5638-.3648.1713-.4907.1713-.4907zM29.98 31.0559s.1262.6 1.095.6c.9687 0 4.555.0928 4.7337-3.3726.1025-2.0034-.8362-3.4323-2.82-4.0501-.3037-.0941-.985-.117-.985-.117v-.7437s7.15-.4309 7.3625 4.1417c.0738 1.5789-.5975 2.4904-1.2362 3.2175-.595.6763-2.3213 1.2586-2.3213 1.2586s4.5.9915 4.45 4.9247c-.05 3.9345-4.31 4.8892-5.5275 4.8892h-3.0537v-.7373s1.3537.1615 2.3875-.2568c1.0337-.4195 2.5175-1.6284 2.5175-4.012 0-1.0132-.5913-2.62-2.1425-3.4044-1.255-.6343-4.4588-.4767-4.4588 0v-2.3378z"/></g><defs><clipPath id="clip0_52_111"><path fill="#fff" d="M7 12h50v41H7z"/></clipPath></defs></symbol><symbol id="BNB" fill="none" viewBox="0 0 30 30"><g clip-path="url(#clip0_531_1582)"><path fill="#212121" d="M29.9956 14.9992c0 8.2436-6.6826 14.9264-14.9264 14.9264-8.24369 0-14.92638-6.6828-14.92638-14.9264C.14282 6.75541 6.82551.07288 15.0692.07288c8.2438 0 14.9264 6.68253 14.9264 14.92632"/><path fill="#F4BB0B" d="m15.0692 17.9282-2.9293-2.929 2.9293-2.9293 2.9293 2.9293zm6.6569-2.929-.0124.0121 2.7169 2.7168 2.7289-2.729-2.7479-2.7479-2.7167 2.7167z"/><path fill="#F4BB0B" d="m10.361 13.0504 4.7082-4.70821 4.7775 4.77751 2.7166-2.7166-7.4941-7.49441-7.42496 7.42501zm9.5045 3.8092-4.7963 4.7963-4.7537-4.754-2.71664 2.7169 7.47034 7.4706 7.513-7.513zm-11.453-1.8604.1003-.1005-2.71689-2.7169L2.979 14.9992l2.77153 2.7715 2.7166-2.7166z"/></g><defs><clipPath id="clip0_531_1582"><path fill="#fff" d="M0 0h30v30H0z"/></clipPath></defs></symbol><symbol id="chainLink" fill="none" viewBox="0 0 24 24"><path stroke="currentColor" stroke-linecap="round" stroke-linejoin="round" d="M14 3h7v7M21 14.7368V19.5c0 .8285-.6715 1.5-1.5 1.5h-15c-.82842 0-1.5-.6715-1.5-1.5v-15C3 3.67158 3.67158 3 4.5 3H9M12.8994 11.1l7.65-7.65005"/></symbol><symbol id="chart" fill="none" viewBox="0 0 24 24"><path stroke="currentColor" stroke-linecap="round" stroke-linejoin="round" stroke-opacity=".5" d="M8.5 9H2v12h6.5z"/><path stroke="currentColor" stroke-linejoin="round" stroke-opacity=".5" d="M15 3H8.5v18H15z"/><path stroke="currentColor" stroke-linecap="round" stroke-linejoin="round" stroke-opacity=".5" d="M21.5 13H15v8h6.5z"/></symbol><symbol id="close" fill="none" viewBox="0 0 16 16"><path stroke="currentColor" stroke-linecap="round" stroke-linejoin="round" d="m12 4-8 8M4 4l8 8"/></symbol><symbol id="copied" fill="none" viewBox="0 0 13 13"><path fill="currentColor" d="M4.94568 12.2646c.46484 0 .82715-.1777 1.07324-.5537L12.39 1.96973c.1777-.27344.2529-.52637.2529-.76563 0-.64258-.4785-1.10742-1.1347-1.10742-.4512 0-.7315.16406-1.0049.59473L4.9115 9.50977 2.07458 5.98926c-.25292-.30078-.52636-.4375-.90917-.4375-.6631 0-1.1416.47168-1.1416 1.11426 0 .2871.08886.54003.33496.82031L3.8861 11.7588c.29394.3486.62207.5058 1.05957.5058"/></symbol><symbol id="copy" fill="none" viewBox="0 0 24 24"><path stroke="currentColor" stroke-linecap="round" stroke-linejoin="round" d="M6.5 6.2158V3.90625C6.5 3.1296 7.1296 2.5 7.90625 2.5H20.0938c.7766 0 1.4062.6296 1.4062 1.40625V16.0938c0 .7766-.6296 1.4062-1.4062 1.4062h-2.3356"/><path stroke="currentColor" stroke-linejoin="round" d="M16.0938 6.5H3.90625C3.1296 6.5 2.5 7.1296 2.5 7.90625V20.0938c0 .7766.6296 1.4062 1.40625 1.4062H16.0938c.7766 0 1.4062-.6296 1.4062-1.4062V7.90625C17.5 7.1296 16.8704 6.5 16.0938 6.5Z"/></symbol><symbol id="discord" fill="none" viewBox="0 0 28 28"><path fill="currentColor" d="M22.9482 5.85533a.066.066 0 0 0-.0334-.03062 21.222 21.222 0 0 0-5.2363-1.62339.0795.0795 0 0 0-.0841.03981c-.2397.435-.4573.88182-.6519 1.33875a19.594 19.594 0 0 0-5.8812 0 13.53 13.53 0 0 0-.6621-1.33875.0823.0823 0 0 0-.036-.03288.0827.0827 0 0 0-.0482-.00693 21.162 21.162 0 0 0-5.23634 1.62343.075.075 0 0 0-.03447.02958C1.70917 10.8347.79559 15.6927 1.24376 20.4905a.088.088 0 0 0 .01062.0335.089.089 0 0 0 .02285.0267 21.335 21.335 0 0 0 6.42359 3.2457.083.083 0 0 0 .04977-.0006.083.083 0 0 0 .04049-.029A15.23 15.23 0 0 0 9.1052 21.63a.081.081 0 0 0 .00871-.033.081.081 0 0 0-.00557-.0336.081.081 0 0 0-.01887-.0284.08.08 0 0 0-.02886-.0182 14.05 14.05 0 0 1-2.00672-.9561.0823.0823 0 0 1-.04053-.0662.0824.0824 0 0 1 .0074-.0393.0816.0816 0 0 1 .02504-.0312 11.1 11.1 0 0 0 .39851-.3123.079.079 0 0 1 .03997-.0174.08.08 0 0 1 .04316.0062c4.21006 1.9214 8.76796 1.9214 12.92816 0a.0794.0794 0 0 1 .0435-.0071c.0149.0018.029.0078.0406.0173.1306.1077.2638.2121.3996.3133a.082.082 0 0 1 .0252.031.08248.08248 0 0 1-.004.0775.082.082 0 0 1-.0283.0282c-.6412.3743-1.3128.6938-2.0077.9551a.0816.0816 0 0 0-.0474.0473.08.08 0 0 0-.0053.0339.083.083 0 0 0 .0089.033 17.1 17.1 0 0 0 1.3132 2.1357.08167.08167 0 0 0 .0902.0306 21.267 21.267 0 0 0 6.434-3.2456.085.085 0 0 0 .0231-.026.081.081 0 0 0 .0103-.0332c.5366-5.5468-.8982-10.3649-3.8033-14.63617M9.73393 17.5691c-1.26753 0-2.31193-1.1631-2.31193-2.5917 0-1.4285 1.02415-2.5918 2.31193-2.5918 1.29787 0 2.33217 1.1734 2.31187 2.5917 0 1.4287-1.0242 2.5918-2.31187 2.5918m8.54787 0c-1.2675 0-2.3119-1.1631-2.3119-2.5917 0-1.4285 1.0242-2.5918 2.3119-2.5918 1.2979 0 2.3322 1.1734 2.3119 2.5917 0 1.4287-1.014 2.5918-2.3119 2.5918"/></symbol><symbol id="down" fill="none" viewBox="0 0 14 14"><path stroke="currentColor" stroke-linecap="round" stroke-linejoin="round" stroke-width="1.125" d="m2.33325 4.66663 4.66667 4.66666 4.66668-4.66666"/></symbol><symbol id="ETH" fill="none" viewBox="0 0 30 30"><path fill="url(#paint0_linear_51_9181)" d="M15 1.84229C7.73308 1.84229 1.84229 7.73308 1.84229 15c0 7.2669 5.89109 13.1577 13.15771 13.1577 7.2669 0 13.1577-5.8911 13.1577-13.1577 0-7.26692-5.8908-13.15771-13.1577-13.15771m0 22.16941-5.46812-7.7976L15 19.4319l5.4681-3.2178zm0-5.5275-5.46812-3.2571L15 5.98829l5.4681 9.23851z"/><defs><linearGradient id="paint0_linear_51_9181" x1="28.158" x2="1.842" y1="1.842" y2="28.158" gradientUnits="userSpaceOnUse"><stop stop-color="#EDBAFF"/><stop offset="1" stop-color="#A1FFFF"/></linearGradient></defs></symbol><symbol id="field" fill="none" viewBox="0 0 81 81"><path fill="currentColor" d="M81 40c0 22.0914-17.9086 40-40 40S1 62.0914 1 40 18.9086 0 41 0s40 17.9086 40 40"/><path fill="#282828" fill-rule="evenodd" d="M57.6174 23.6174c-.8232-.8232-2.1578-.8232-2.9809 0L41.1078 37.1461 27.5982 23.6365c-.8231-.8232-2.1577-.8232-2.9808 0-.8232.8231-.8232 2.1577 0 2.9809l13.5095 13.5095-13.0365 13.0365c-.8231.8231-.8231 2.1577 0 2.9809.8232.8231 2.1578.8231 2.9809 0l13.0365-13.0365 13.0556 13.0556c.8231.8231 2.1577.8231 2.9809 0 .8231-.8231.8231-2.1577 0-2.9809L44.0887 40.1269l13.5287-13.5287c.8231-.8231.8231-2.1577 0-2.9808" clip-rule="evenodd"/></symbol><symbol id="github" fill="none" viewBox="0 0 28 28"><path fill="currentColor" d="M23.3942 5.92963c.974-1.80887-.1392-4.17432-.1392-4.17432-2.5046 0-4.3134 1.66972-4.3134 1.66972-.974-.55658-4.1744-.55658-4.1744-.55658s-3.2003 0-4.1743.55658c0 0-1.80886-1.66972-4.31346-1.66972 0 0-1.11317 2.36545-.13916 4.17432 0 0-2.2263 2.08718-1.39144 6.53977.78452 4.1841 4.4526 5.2875 6.81806 5.2875 0 0-.974.8349-.8349 2.2263 0 0-1.3914.8349-2.78284.2783s-2.08718-1.948-2.08718-1.948-1.39144-1.8089-2.78288-1.1132c0 0-.41743.4174 1.11316 1.1132 0 0 1.11317 1.6697 1.53059 2.6437.41743.974 2.64373 1.8089 4.87005 1.2523v3.2003s0 .2783-.5566.4174c-.55655.1392-.55655.4174-.27825.4174H19.7764c.2783 0 .2783-.2782-.2783-.4174-.5565-.1391-.5565-.4174-.5565-.4174v-3.2003s.0122-1.6688 0-2.2263c-.0306-1.3981-.974-2.2263-.974-2.2263 2.3654 0 6.0335-1.1034 6.818-5.2875.8349-4.45259-1.3914-6.53977-1.3914-6.53977"/></symbol><symbol id="left" fill="none" viewBox="0 0 14 14"><path stroke="currentColor" stroke-linecap="round" stroke-linejoin="round" d="M8.75 10.5 5.25 7l3.5-3.5"/></symbol><symbol id="mask" fill="none" viewBox="0 0 659 72"><path fill="#000" d="M.5 1.18182h23.5909L40.3182 40.7273h.8182L57.3636 1.18182h23.5909V71H62.4091V30.6364h-.5455L46.3182 70.4545H35.1364L19.5909 30.3636h-.5454V71H.5zM108.074 71H87.6193L110.665 1.18182h25.909L159.619 71h-20.454l-15.273-50.5909h-.545zm-3.818-27.5455h38.454v14.1819h-38.454zM201.261 23c-.181-2.2727-1.034-4.0455-2.556-5.3182-1.5-1.2727-3.785-1.9091-6.853-1.9091-1.954 0-3.557.2387-4.807.7159q-1.8405.6819-2.727 1.875c-.591.7955-.898 1.7046-.92 2.7273-.046.8409.102 1.6023.443 2.2841.364.6591.932 1.2614 1.704 1.8068.773.5227 1.762 1 2.966 1.4318 1.205.4319 2.637.8182 4.296 1.1591L198.534 29c3.864.8182 7.171 1.8977 9.921 3.2386s5 2.9205 6.75 4.7387c1.75 1.7954 3.034 3.8182 3.852 6.0682.841 2.25 1.273 4.7045 1.295 7.3636-.022 4.5909-1.17 8.4773-3.443 11.6591s-5.523 5.6023-9.75 7.2613c-4.204 1.6591-9.261 2.4887-15.17 2.4887-6.069 0-11.364-.8977-15.887-2.6932-4.5-1.7955-8-4.5568-10.5-8.2841-2.477-3.75-3.727-8.5454-3.75-14.3864h18c.114 2.1364.648 3.9319 1.603 5.3864.954 1.4546 2.295 2.5568 4.022 3.3068 1.75.75 3.83 1.125 6.239 1.125q3.0345 0 5.079-.75c1.364-.5 2.398-1.1932 3.103-2.0795.704-.8864 1.068-1.8977 1.091-3.0341-.023-1.0682-.375-2-1.057-2.7955-.659-.8181-1.75-1.5454-3.273-2.1818-1.523-.6591-3.579-1.2727-6.17-1.8409l-6.955-1.5c-6.182-1.3409-11.057-3.5795-14.625-6.7159-3.545-3.1591-5.307-7.4659-5.284-12.9205-.023-4.4318 1.159-8.3068 3.545-11.625 2.41-3.34087 5.739-5.94314 9.989-7.80678 4.273-1.86363 9.171-2.79545 14.693-2.79545q8.4555 0 14.625 2.82955c4.114 1.88636 7.284 4.54545 9.512 7.97728 2.25 3.4091 3.386 7.3977 3.409 11.9659zm26.301 48V1.18182h18.955V29.4091h.955l21-28.22728h22.09l-23.59 31.09088L291.108 71h-22.636L252.79 44.8182 246.517 53v18zm108.887-9.5455V11h15.273v50.4545zm-17.591-17.5909V28.5909h50.454v15.2727zm80.233-27.4091V1.18182h60.682V16.4545h-21V71h-18.682V16.4545zM466.906 71V1.18182h50.318V16.4545h-31.363v12h28.773v15.2728h-28.773v12h31.227V71zm80.037-69.81818L558.398 21.5h.545l11.591-20.31818h21.136L570.807 36.0909 592.489 71h-21.682l-11.864-20.7273h-.545L546.534 71h-21.545l21.409-34.9091L525.67 1.18182zm50.992 15.27268V1.18182h60.681V16.4545h-21V71h-18.681V16.4545z"/></symbol><symbol id="medium" fill="none" viewBox="0 0 28 28"><path fill="currentColor" d="M25.7651 5.58527 28 3.46448V3h-7.7401l-5.5161 13.6249L8.46927 3H.35365v.46448l2.61041 3.11817c.25521.23044.38646.56891.35365.90737V19.743c.08021.4429-.06198.893-.37552 1.2135L0 24.4959v.4573h8.33438v-.4645l-2.93855-3.5286c-.31718-.3205-.47031-.767-.40468-1.2135V9.14632L12.3083 24.9604h.8495l6.2927-15.81408V21.745c0 .3313 0 .3997-.2187.6193l-2.2641 2.1712V25H27.949v-.4645l-2.1839-2.1208c-.1896-.144-.288-.3852-.2479-.6193V6.20458c-.0401-.23404.0583-.47528.2479-.61931"/></symbol><symbol id="menu" fill="none" viewBox="0 0 19 19"><path stroke="currentColor" stroke-linecap="round" stroke-linejoin="round" stroke-miterlimit="10" stroke-width="1.125" d="m12.19 9.05759-2.24941-2.25c-.58485-.585-.58485-1.5375 0-2.1225l2.24941-2.25c.5848-.585 1.5371-.585 2.1219 0l2.2494 2.25c.5849.585.5849 1.5375 0 2.1225l-2.2494 2.25c-.5923.585-1.5446.585-2.1219 0M9.49822 16.25H4.24961c-.82479 0-1.49961-.675-1.49961-1.5V9.5h6.74822z"/><path stroke="currentColor" stroke-linecap="round" stroke-linejoin="round" stroke-miterlimit="10" stroke-width="1.125" d="M9.49822 9.5H2.75V4.25c0-.825.67482-1.5 1.49961-1.5h5.24861zM14.7468 16.25H9.49817V9.5h6.74823v5.25c0 .825-.6748 1.5-1.4996 1.5"/></symbol><symbol id="NEC" fill="none" viewBox="0 0 20 20"><g clip-path="url(#clip0_412_522)"><path fill="url(#paint0_linear_412_522)" d="M9.98738 12.5891c1.43332 0 2.59532-1.1649 2.59532-2.60185 0-1.43698-1.162-2.60187-2.59532-2.60187-1.43334 0-2.59529 1.16489-2.59529 2.60187 0 1.43695 1.16195 2.60185 2.59529 2.60185"/><path fill="url(#paint1_linear_412_522)" d="M17.4051 7.38533c-2.6464 0-4.7935-2.13618-4.8224-4.78249v-.00145c0-.01788-.001-.03575-.0015-.05363C12.5523 1.13572 11.4026 0 9.98738 0S7.39209 1.16471 7.39209 2.60187s1.16176 2.60187 2.59529 2.60187h.01592c2.655 0 4.807 2.15792 4.807 4.81966l.001-.0009c.0183 1.4207 1.1723 2.567 2.5943 2.567 1.4219 0 2.5953-1.1647 2.5953-2.60182 0-1.43716-1.1618-2.60187-2.5953-2.60187z"/><path fill="url(#paint2_linear_412_522)" d="M10.013 14.7967c-2.64635 0-4.79351-2.1362-4.82242-4.7825v-.0014c0-.01791-.00097-.03578-.00145-.05366C5.16022 8.5471 4.0105 7.41138 2.59529 7.41138S0 8.5756 0 10.0128c0 1.4371 1.16176 2.6018 2.59529 2.6018h.0159c2.65504 0 4.80701 2.158 4.80701 4.8197l.00097-.0009c.01831 1.4207 1.17236 2.567 2.59433 2.567 1.422 0 2.5953-1.1647 2.5953-2.6018 0-1.4372-1.1618-2.6019-2.5953-2.6019z"/></g><defs><linearGradient id="paint0_linear_412_522" x1="12.583" x2="7.379" y1="7.385" y2="12.576" gradientUnits="userSpaceOnUse"><stop stop-color="#EDBAFF"/><stop offset="1" stop-color="#A1FFFF"/></linearGradient><linearGradient id="paint1_linear_412_522" x1="20.001" x2="7.411" y1="0" y2="12.609" gradientUnits="userSpaceOnUse"><stop stop-color="#EDBAFF"/><stop offset="1" stop-color="#A1FFFF"/></linearGradient><linearGradient id="paint2_linear_412_522" x1="12.609" x2=".02" y1="7.411" y2="20.02" gradientUnits="userSpaceOnUse"><stop stop-color="#EDBAFF"/><stop offset="1" stop-color="#A1FFFF"/></linearGradient><clipPath id="clip0_412_522"><path fill="#fff" d="M0 0h20v20H0z"/></clipPath></defs></symbol><symbol id="people" fill="none" viewBox="0 0 18 18"><path fill="currentColor" d="M9 1.5c-1.965 0-3.5625 1.5975-3.5625 3.5625C5.4375 6.99 6.945 8.55 8.91 8.6175c.06-.0075.12-.0075.165 0h.0525c1.92-.0675 3.4275-1.6275 3.435-3.555C12.5625 3.0975 10.965 1.5 9 1.5M12.81 10.6124c-2.0925-1.39499-5.50503-1.39499-7.61253 0-.9525.6375-1.4775 1.5-1.4775 2.4225s.525 1.7775 1.47 2.4075c1.05.705 2.43 1.0575 3.81 1.0575 1.38003 0 2.76003-.3525 3.81003-1.0575.945-.6375 1.47-1.4925 1.47-2.4225-.0075-.9225-.525-1.7775-1.47-2.4075"/></symbol><symbol id="popField" fill="none" viewBox="0 0 16 17"><path stroke="#F43F5E" stroke-linecap="round" stroke-linejoin="round" d="M7.99967 15.1666c3.68193 0 6.66663-2.9847 6.66663-6.66662 0-3.6819-2.9847-6.66667-6.66663-6.66667-3.68189 0-6.66666 2.98477-6.66666 6.66667 0 3.68192 2.98477 6.66662 6.66666 6.66662"/><path stroke="currentColor" stroke-linecap="round" stroke-linejoin="round" d="m10 6.5-4 4M6 6.5l4 4"/></symbol><symbol id="popSuccess" fill="none" viewBox="0 0 16 16"><g stroke="currentColor" stroke-linecap="round" stroke-linejoin="round" clip-path="url(#clip0_419_6633)"><path d="M7.99967 14.6667c3.68203 0 6.66663-2.9847 6.66663-6.66666 0-3.682-2.9846-6.66667-6.66663-6.66667-3.682 0-6.66666 2.98467-6.66666 6.66667 0 3.68196 2.98466 6.66666 6.66666 6.66666"/><path d="m6 7.99996 1.33333 1.33333L10 6.66663"/></g><defs><clipPath id="clip0_419_6633"><path fill="#fff" d="M0 0h16v16H0z"/></clipPath></defs></symbol><symbol id="right" fill="none" viewBox="0 0 16 16"><path stroke="currentColor" stroke-linecap="round" stroke-linejoin="round" stroke-width=".667" d="m6 12 4-4-4-4"/></symbol><symbol id="success" fill="none" viewBox="0 0 56 56"><path fill="#2CCDB0" d="M28.0003 51.3333c6.4433 0 12.2766-2.6117 16.4991-6.8342C48.722 40.2766 51.3337 34.4432 51.3337 28c0-6.4433-2.6117-12.2766-6.8343-16.4992-4.2225-4.2225-10.0558-6.83417-16.4991-6.83417-6.4432 0-12.2766 2.61167-16.4991 6.83417C7.27867 15.7234 4.66699 21.5567 4.66699 28c0 6.4432 2.61168 12.2766 6.83421 16.4991 4.2225 4.2225 10.0559 6.8342 16.4991 6.8342"/><path stroke="#333" stroke-linecap="round" stroke-linejoin="round" stroke-width="2" d="m18.667 28 7 7 14-14"/></symbol><symbol id="telegram" fill="none" viewBox="0 0 16 16"><path fill="currentColor" d="M14.9066 1.37066.4166 6.97785a.18.18 0 0 0-.025.01188c-.1175.06656-.9375.56812.21875 1.01781l.01188.00437L4.07254 9.1266a.19.19 0 0 0 .15906-.01938l8.5578-5.33937a.188.188 0 0 1 .0688-.02594c.119-.01968.4618-.05656.245.21875-.2453.3125-6.09066 5.55063-6.73941 6.13154a.197.197 0 0 0-.06469.1303l-.28312 3.375a.2214.2214 0 0 0 .02329.0991.221.221 0 0 0 .06514.0781.2148.2148 0 0 0 .13086.0325.2156.2156 0 0 0 .12446-.0518l2.05-1.8322a.19.19 0 0 1 .11707-.0482.1903.1903 0 0 1 .12136.036l3.57654 2.5968.0116.0079c.0866.0534 1.0216.5975 1.2916-.6175l2.4687-11.7391c.0034-.03719.0369-.44594-.2553-.6875-.3069-.2525-.7413-.125-.8066-.11125a.19.19 0 0 0-.0281.01031"/></symbol><symbol id="top" fill="none" viewBox="0 0 16 16"><path stroke="currentColor" stroke-linecap="round" stroke-linejoin="round" stroke-opacity=".5" d="M12 10 8 6l-4 4"/></symbol><symbol id="twitter" fill="none" viewBox="0 0 28 28"><path fill="currentColor" d="M19.752 5h3.0668l-6.7004 7.6245L24 23h-6.1711l-4.834-6.2932L7.46458 23H4.39474l7.16596-8.1555L4 5h6.3279l4.3695 5.7511L19.751 5zm-1.0779 16.172h1.6994L9.40486 6.73127H7.58097z"/></symbol><symbol id="USDT" fill="none" viewBox="0 0 20 20"><g clip-path="url(#clip0_415_665)"><path fill="#1BA27A" d="M19.982 9.99651c0 5.49539-4.4548 9.95029-9.9502 9.95029-5.49543 0-9.95026-4.4549-9.95026-9.95029 0-5.49542 4.45483-9.95025 9.95026-9.95025 5.4954 0 9.9502 4.45483 9.9502 9.95025"/><path fill="#fff" d="M14.7018 5.06372H5.27979v2.27463h3.57373v3.34325H11.128V7.33835h3.5738z"/><path fill="#fff" d="M10.0125 11.0378c-2.95632 0-5.35293-.4678-5.35293-1.04503 0-.57712 2.39661-1.04508 5.35293-1.04508 2.9562 0 5.3528.46796 5.3528 1.04508 0 .57723-2.3966 1.04503-5.3528 1.04503m6.0104-.8708c0-.74428-2.6909-1.34766-6.0104-1.34766s-6.01055.60338-6.01055 1.34766c0 .6553 2.08667 1.2014 4.85164 1.3225v4.7994h2.27451v-4.7975c2.7864-.1173 4.8948-.6656 4.8948-1.3244"/></g><defs><clipPath id="clip0_415_665"><path fill="#fff" d="M0 0h20v20H0z"/></clipPath></defs></symbol><symbol id="youtube" fill="none" viewBox="0 0 16 12"><g clip-path="url(#clip0_16_1804)"><path fill="currentColor" d="M15.6466 2.12967c-.1867-.69017-.7258-1.2293-1.416-1.41605C12.989.375 7.99177.375 7.99177.375S2.99456.38526 1.75295.72388C1.06279.91064.52365 1.44976.3369 2.13993c-.37556 2.20616-.52127 5.56774.01026 7.68565.18676.69012.72589 1.22932 1.41605 1.41602 1.24161.3386 6.23882.3386 6.23882.3386s4.99717 0 6.23887-.3386c.6901-.1867 1.2292-.7259 1.416-1.41602.3961-2.20924.5182-5.56876-.0103-7.69591"/><path fill="#000" d="m6.40137 8.37879 4.14553-2.40113-4.14553-2.40112z"/></g></symbol></defs></svg>