<svg width="64" height="64" viewBox="0 0 64 64" fill="none" xmlns="http://www.w3.org/2000/svg">
<rect width="64" height="64" rx="32" fill="black"/>
<g clip-path="url(#clip0_52_111)">
<path d="M31.9813 49.6096L35.6175 47.2654L31.9813 49.6096Z" fill="#6B56F0"/>
<path d="M28.7088 17.5935L32.0038 15.5582L32 15.5569L28.7025 17.5897L28.7088 17.5935Z" fill="#6B56F0"/>
<path d="M56.89 22.9225C56.8175 22.6543 56.7125 22.4013 56.5737 22.1623C56.435 21.9233 56.2687 21.7059 56.0737 21.5127C55.875 21.3156 55.655 21.1478 55.4112 21.0105L40.1212 12.3941C39.8812 12.2593 39.6287 12.1576 39.3625 12.0915C39.1012 12.0267 38.835 11.9962 38.5662 12.0013C38.2962 12.0064 38.0325 12.047 37.7737 12.1233C37.51 12.2009 37.2612 12.3115 37.0275 12.4564L32 15.5569L32.0037 15.5595L28.71 17.5947L27.0762 18.6041L27.05 18.6206L30.8887 20.9648C31.5937 21.3945 32.475 21.3881 33.1737 20.947L35.0637 19.7533L37.5862 18.1973C38.2587 17.7829 39.0987 17.7651 39.7862 18.1541L50.755 24.3361C51.4525 24.7289 51.885 25.4764 51.885 26.2862V38.4774C51.885 39.277 51.4637 40.0168 50.78 40.4135L39.7087 46.8485C39.0337 47.2413 38.2037 47.24 37.53 46.8472L36.8687 46.4608L35.62 47.2654L31.9837 49.6096L32.0012 49.6198L37.0812 52.5843C37.3162 52.7216 37.565 52.8258 37.8275 52.8958C38.085 52.9644 38.3475 53 38.6137 53C38.88 53 39.1425 52.9657 39.4 52.897C39.6625 52.8271 39.9112 52.7241 40.1462 52.5868L55.4462 43.6933C55.6837 43.5547 55.9 43.3869 56.095 43.1899C56.2862 42.9966 56.4487 42.7805 56.5837 42.5441C56.7187 42.3076 56.8225 42.0559 56.8925 41.7915C56.965 41.522 57 41.2487 57 40.969V23.7552C57 23.4729 56.9625 23.1945 56.89 22.9225Z" fill="white" fill-opacity="0.5"/>
<path d="M33.3725 44.1598C32.6712 43.7009 31.7738 43.6856 31.0575 44.1229L29.2225 45.2429L26.8363 46.6349C25.9363 47.1599 24.8313 47.1612 23.93 46.6375L13.59 40.6283C12.6788 40.0995 12.1163 39.1143 12.1163 38.0464V26.7248C12.1163 25.6442 12.6925 24.6476 13.6225 24.1238L23.8425 18.3626C24.76 17.8452 25.88 17.868 26.7763 18.421L27.0737 18.6041L28.7075 17.5947L28.7013 17.5909L31.9988 15.5569L26.9737 12.4564C26.7387 12.3115 26.49 12.2009 26.2262 12.1233C25.9675 12.047 25.705 12.0064 25.435 12.0013C25.165 11.9962 24.9 12.0267 24.6388 12.0928C24.3725 12.1589 24.1187 12.2606 23.8787 12.3954L8.59 21.0105C8.34625 21.1478 8.125 21.3144 7.92625 21.5127C7.73125 21.7072 7.56625 21.9246 7.4275 22.1636C7.28875 22.4026 7.1825 22.6568 7.11 22.9238C7.03625 23.1958 7 23.4742 7 23.7564V40.9703C7 41.2487 7.03625 41.522 7.1075 41.7915C7.17875 42.0559 7.28125 42.3063 7.41625 42.5441C7.55125 42.7805 7.715 42.9979 7.90625 43.1911C8.1 43.3882 8.315 43.556 8.5525 43.6945L23.8538 52.5869C24.0888 52.7241 24.3387 52.8271 24.6012 52.897C24.8587 52.9657 25.12 52.9987 25.3875 52.9987C25.655 52.9987 25.9175 52.9644 26.175 52.8945C26.4375 52.8246 26.685 52.7191 26.9212 52.5818L32 49.6185L31.9825 49.6083L35.6187 47.2642L36.8675 46.4595L36.88 46.4519L33.3738 44.1585L33.3725 44.1598Z" fill="white"/>
<path d="M23.9837 23.4081H29.6375V38.9642L26.135 41.7381V26.5213C26.135 26.5213 26.065 25.3658 25.6687 24.884C25.2725 24.4022 24.3775 24.2623 24.3775 24.2623C24.3775 24.2623 23.8137 24.2751 23.8137 23.8975C23.8137 23.5199 23.985 23.4068 23.985 23.4068L23.9837 23.4081Z" fill="white"/>
<path d="M29.98 31.0559C29.98 31.0559 30.1062 31.6559 31.075 31.6559C32.0437 31.6559 35.63 31.7487 35.8087 28.2833C35.9112 26.2799 34.9725 24.851 32.9887 24.2332C32.685 24.1391 32.0037 24.1162 32.0037 24.1162V23.3725C32.0037 23.3725 39.1537 22.9416 39.3662 27.5142C39.44 29.0931 38.7687 30.0046 38.13 30.7317C37.535 31.408 35.8087 31.9903 35.8087 31.9903C35.8087 31.9903 40.3087 32.9818 40.2587 36.915C40.2087 40.8495 35.9487 41.8042 34.7312 41.8042H31.6775V41.0669C31.6775 41.0669 33.0312 41.2284 34.065 40.8101C35.0987 40.3906 36.5825 39.1817 36.5825 36.7981C36.5825 35.7849 35.9912 34.1781 34.44 33.3937C33.185 32.7594 29.9812 32.917 29.9812 33.3937V31.0559H29.98Z" fill="white"/>
</g>
<defs>
<clipPath id="clip0_52_111">
<rect width="50" height="41" fill="white" transform="translate(7 12)"/>
</clipPath>
</defs>
</svg>
