<svg width="30" height="30" viewBox="0 0 30 30" fill="none" xmlns="http://www.w3.org/2000/svg">
<g clip-path="url(#clip0_531_1582)">
<path d="M29.9956 14.9992C29.9956 23.2428 23.313 29.9256 15.0692 29.9256C6.82551 29.9256 0.142822 23.2428 0.142822 14.9992C0.142822 6.75541 6.82551 0.072876 15.0692 0.072876C23.313 0.072876 29.9956 6.75541 29.9956 14.9992Z" fill="#212121"/>
<path d="M15.0692 17.9282L12.1399 14.9992L15.0692 12.0699L17.9985 14.9992L15.0692 17.9282ZM21.7261 14.9992L21.7137 15.0113L24.4306 17.7281L27.1595 14.9991L24.4116 12.2512L21.6949 14.9679L21.7261 14.9992Z" fill="#F4BB0B"/>
<path d="M10.361 13.0504L15.0692 8.34219L19.8467 13.1197L22.5633 10.4031L15.0692 2.90869L7.64424 10.3337L10.361 13.0504ZM19.8655 16.8596L15.0692 21.6559L10.3155 16.9019L7.59886 19.6188L15.0692 27.0894L22.5822 19.5764L19.8655 16.8596ZM8.4125 14.9992L8.5128 14.8987L5.79591 12.1818L2.979 14.9992L5.75053 17.7707L8.46713 15.0541L8.4125 14.9992Z" fill="#F4BB0B"/>
</g>
<defs>
<clipPath id="clip0_531_1582">
<rect width="30" height="30" fill="white"/>
</clipPath>
</defs>
</svg>
