<svg xmlns="http://www.w3.org/2000/svg" width="28" height="28" viewBox="0 0 28 28" fill="none">
<path d="M22.9482 5.85533C22.941 5.84148 22.9292 5.83062 22.9148 5.82471C21.2469 5.05946 19.4868 4.51378 17.6785 4.20132C17.6621 4.19827 17.6451 4.20047 17.63 4.20762C17.6149 4.21476 17.6024 4.22649 17.5944 4.24113C17.3547 4.67613 17.1371 5.12295 16.9425 5.57988C14.9933 5.28399 13.0106 5.28399 11.0613 5.57988C10.8654 5.12179 10.6444 4.67486 10.3992 4.24113C10.3908 4.22681 10.3783 4.21535 10.3632 4.20825C10.3482 4.20115 10.3314 4.19874 10.315 4.20132C8.50656 4.51312 6.74634 5.05885 5.07866 5.82475C5.06439 5.8308 5.05234 5.84114 5.04419 5.85433C1.70917 10.8347 0.795583 15.6927 1.24376 20.4905C1.24502 20.5023 1.24863 20.5136 1.25438 20.524C1.26013 20.5343 1.2679 20.5434 1.27723 20.5507C3.21918 21.9885 5.39127 23.0861 7.70082 23.7964C7.71708 23.8013 7.73445 23.8011 7.75059 23.7958C7.76673 23.7905 7.78085 23.7804 7.79108 23.7668C8.28712 23.0919 8.72665 22.3772 9.1052 21.63C9.1104 21.6198 9.11337 21.6085 9.11391 21.597C9.11445 21.5855 9.11255 21.5741 9.10834 21.5634C9.10413 21.5527 9.0977 21.543 9.08947 21.535C9.08125 21.5269 9.07141 21.5207 9.06061 21.5168C8.36751 21.2516 7.6965 20.9319 7.05389 20.5607C7.04222 20.5539 7.03241 20.5442 7.02534 20.5327C7.01827 20.5211 7.01416 20.508 7.01336 20.4945C7.01256 20.481 7.0151 20.4675 7.02076 20.4552C7.02641 20.4429 7.03501 20.4321 7.0458 20.424C7.18102 20.3229 7.31389 20.2188 7.44431 20.1117C7.45575 20.1023 7.4696 20.0962 7.48428 20.0943C7.49897 20.0923 7.51392 20.0945 7.52744 20.1005C11.7375 22.0219 16.2954 22.0219 20.4556 20.1005C20.4691 20.0941 20.4842 20.0916 20.4991 20.0934C20.514 20.0952 20.5281 20.1012 20.5397 20.1107C20.6703 20.2184 20.8035 20.3228 20.9393 20.424C20.9501 20.4321 20.9588 20.4427 20.9645 20.455C20.9703 20.4672 20.9729 20.4807 20.9722 20.4942C20.9715 20.5077 20.9675 20.5209 20.9605 20.5325C20.9535 20.5441 20.9438 20.5538 20.9322 20.5607C20.291 20.935 19.6194 21.2545 18.9245 21.5158C18.9137 21.5199 18.9039 21.5262 18.8957 21.5344C18.8876 21.5425 18.8812 21.5523 18.8771 21.5631C18.8729 21.5739 18.8711 21.5854 18.8718 21.597C18.8724 21.6085 18.8755 21.6197 18.8807 21.63C19.2656 22.3731 19.7045 23.0869 20.1939 23.7657C20.2038 23.7796 20.2178 23.79 20.234 23.7955C20.2502 23.801 20.2678 23.8013 20.2841 23.7963C22.5978 23.0883 24.7737 21.9907 26.7181 20.5507C26.7275 20.5437 26.7354 20.5349 26.7412 20.5247C26.747 20.5145 26.7505 20.5032 26.7515 20.4915C27.2881 14.9447 25.8533 10.1266 22.9482 5.85533ZM9.73393 17.5691C8.4664 17.5691 7.422 16.406 7.422 14.9774C7.422 13.5489 8.44615 12.3856 9.73393 12.3856C11.0318 12.3856 12.0661 13.559 12.0458 14.9773C12.0458 16.406 11.0216 17.5691 9.73393 17.5691ZM18.2818 17.5691C17.0143 17.5691 15.9699 16.406 15.9699 14.9774C15.9699 13.5489 16.9941 12.3856 18.2818 12.3856C19.5797 12.3856 20.614 13.559 20.5937 14.9773C20.5937 16.406 19.5797 17.5691 18.2818 17.5691Z" fill="currentColor"/>
</svg>
