<svg xmlns="http://www.w3.org/2000/svg" width="28" height="28" viewBox="0 0 28 28" fill="none">
<path d="M23.3942 5.92963C24.3682 4.12076 23.255 1.75531 23.255 1.75531C20.7504 1.75531 18.9416 3.42503 18.9416 3.42503C17.9676 2.86845 14.7672 2.86845 14.7672 2.86845C14.7672 2.86845 11.5669 2.86845 10.5929 3.42503C10.5929 3.42503 8.78404 1.75531 6.27944 1.75531C6.27944 1.75531 5.16627 4.12076 6.14028 5.92963C6.14028 5.92963 3.91398 8.01681 4.74884 12.4694C5.53336 16.6535 9.20144 17.7569 11.5669 17.7569C11.5669 17.7569 10.5929 18.5918 10.732 19.9832C10.732 19.9832 9.3406 20.8181 7.94916 20.2615C6.55771 19.7049 5.86198 18.3135 5.86198 18.3135C5.86198 18.3135 4.47054 16.5046 3.0791 17.2003C3.0791 17.2003 2.66167 17.6177 4.19226 18.3135C4.19226 18.3135 5.30543 19.9832 5.72285 20.9572C6.14028 21.9312 8.36658 22.7661 10.5929 22.2095V25.4098C10.5929 25.4098 10.5929 25.6881 10.0363 25.8272C9.47975 25.9664 9.47975 26.2446 9.75805 26.2446H19.7764C20.0547 26.2446 20.0547 25.9664 19.4981 25.8272C18.9416 25.6881 18.9416 25.4098 18.9416 25.4098V22.2095C18.9416 22.2095 18.9538 20.5407 18.9416 19.9832C18.911 18.5851 17.9676 17.7569 17.9676 17.7569C20.333 17.7569 24.0011 16.6535 24.7856 12.4694C25.6205 8.01681 23.3942 5.92963 23.3942 5.92963Z" fill="currentColor"/>
</svg>
