<svg xmlns="http://www.w3.org/2000/svg" width="28" height="28" viewBox="0 0 28 28" fill="none">
<path d="M25.7651 5.58527L28 3.46448V3H20.2599L14.7438 16.6249L8.46927 3H0.353646V3.46448L2.96406 6.58265C3.21927 6.81309 3.35052 7.15156 3.31771 7.49002V19.743C3.39792 20.1859 3.25573 20.636 2.94219 20.9565L0 24.4959V24.9532H8.33438V24.4887L5.39583 20.9601C5.07865 20.6396 4.92552 20.1931 4.99115 19.7466V9.14632L12.3083 24.9604H13.1578L19.4505 9.14632V21.745C19.4505 22.0763 19.4505 22.1447 19.2318 22.3643L16.9677 24.5355V25H27.949V24.5355L25.7651 22.4147C25.5755 22.2707 25.4771 22.0295 25.5172 21.7954V6.20458C25.4771 5.97054 25.5755 5.7293 25.7651 5.58527Z" fill="currentColor"/>
</svg>
