<svg width="20" height="20" viewBox="0 0 20 20" fill="none" xmlns="http://www.w3.org/2000/svg">
<g clip-path="url(#clip0_412_522)">
<path d="M9.98738 12.5891C11.4207 12.5891 12.5827 11.4242 12.5827 9.98725C12.5827 8.55027 11.4207 7.38538 9.98738 7.38538C8.55404 7.38538 7.39209 8.55027 7.39209 9.98725C7.39209 11.4242 8.55404 12.5891 9.98738 12.5891Z" fill="url(#paint0_linear_412_522)"/>
<path d="M17.4051 7.38533C14.7587 7.38533 12.6116 5.24915 12.5827 2.60284C12.5827 2.60235 12.5827 2.60187 12.5827 2.60139C12.5827 2.58351 12.5817 2.56564 12.5812 2.54776C12.5523 1.13572 11.4026 0 9.98738 0C8.57216 0 7.39209 1.16471 7.39209 2.60187C7.39209 4.03903 8.55385 5.20374 9.98738 5.20374C9.99268 5.20374 9.99798 5.20374 10.0033 5.20374C12.6583 5.20374 14.8103 7.36166 14.8103 10.0234L14.8113 10.0225C14.8296 11.4432 15.9836 12.5895 17.4056 12.5895C18.8275 12.5895 20.0009 11.4248 20.0009 9.98768C20.0009 8.55052 18.8391 7.38581 17.4056 7.38581L17.4051 7.38533Z" fill="url(#paint1_linear_412_522)"/>
<path d="M10.013 14.7967C7.36665 14.7967 5.21949 12.6605 5.19058 10.0142C5.19058 10.0137 5.19058 10.0132 5.19058 10.0128C5.19058 9.99489 5.18961 9.97702 5.18913 9.95914C5.16022 8.5471 4.0105 7.41138 2.59529 7.41138C1.18007 7.41138 0 8.5756 0 10.0128C0 11.4499 1.16176 12.6146 2.59529 12.6146C2.60059 12.6146 2.60589 12.6146 2.61119 12.6146C5.26623 12.6146 7.4182 14.7726 7.4182 17.4343L7.41917 17.4334C7.43748 18.8541 8.59153 20.0004 10.0135 20.0004C11.4355 20.0004 12.6088 18.8357 12.6088 17.3986C12.6088 15.9614 11.447 14.7967 10.0135 14.7967H10.013Z" fill="url(#paint2_linear_412_522)"/>
</g>
<defs>
<linearGradient id="paint0_linear_412_522" x1="12.5827" y1="7.38538" x2="7.37894" y2="12.5759" gradientUnits="userSpaceOnUse">
<stop stop-color="#EDBAFF"/>
<stop offset="1" stop-color="#A1FFFF"/>
</linearGradient>
<linearGradient id="paint1_linear_412_522" x1="20.0009" y1="0" x2="7.41133" y2="12.6088" gradientUnits="userSpaceOnUse">
<stop stop-color="#EDBAFF"/>
<stop offset="1" stop-color="#A1FFFF"/>
</linearGradient>
<linearGradient id="paint2_linear_412_522" x1="12.6088" y1="7.41138" x2="0.0197298" y2="20.0201" gradientUnits="userSpaceOnUse">
<stop stop-color="#EDBAFF"/>
<stop offset="1" stop-color="#A1FFFF"/>
</linearGradient>
<clipPath id="clip0_412_522">
<rect width="20" height="20" fill="white"/>
</clipPath>
</defs>
</svg>
