<svg width="20" height="20" viewBox="0 0 20 20" fill="none" xmlns="http://www.w3.org/2000/svg">
<g clip-path="url(#clip0_415_665)">
<path d="M19.982 9.99651C19.982 15.4919 15.5272 19.9468 10.0318 19.9468C4.53637 19.9468 0.081543 15.4919 0.081543 9.99651C0.081543 4.50109 4.53637 0.0462647 10.0318 0.0462646C15.5272 0.0462646 19.982 4.50109 19.982 9.99651Z" fill="#1BA27A"/>
<path d="M14.7018 5.06372H5.27979V7.33835H8.85352V10.6816H11.128V7.33835H14.7018V5.06372Z" fill="white"/>
<path d="M10.0125 11.0378C7.05618 11.0378 4.65957 10.57 4.65957 9.99277C4.65957 9.41565 7.05618 8.94769 10.0125 8.94769C12.9687 8.94769 15.3653 9.41565 15.3653 9.99277C15.3653 10.57 12.9687 11.0378 10.0125 11.0378ZM16.0229 10.167C16.0229 9.42272 13.332 8.81934 10.0125 8.81934C6.693 8.81934 4.00195 9.42272 4.00195 10.167C4.00195 10.8223 6.08862 11.3684 8.85359 11.4895V16.2889H11.1281V11.4914C13.9145 11.3741 16.0229 10.8258 16.0229 10.167Z" fill="white"/>
</g>
<defs>
<clipPath id="clip0_415_665">
<rect width="20" height="20" fill="white"/>
</clipPath>
</defs>
</svg>
